<mxfile host="app.diagrams.net" agent="Mozilla/5.0 (Windows NT 10.0; Win64; x64) AppleWebKit/537.36 (KHTML, like Gecko) Chrome/132.0.0.0 Safari/537.36" version="26.0.11">
  <diagram name="Page-1" id="MQIIFP9xnroCeHsiHnaC">
    <mxGraphModel dx="794" dy="412" grid="1" gridSize="10" guides="1" tooltips="1" connect="1" arrows="1" fold="1" page="1" pageScale="1" pageWidth="827" pageHeight="1169" math="0" shadow="0">
      <root>
        <mxCell id="0" />
        <mxCell id="1" parent="0" />
        <mxCell id="t49IodBB0YmtrTX4iaS2-1" value="1. New Booking Form" style="whiteSpace=wrap;html=1;aspect=fixed;fillColor=#dae8fc;strokeColor=#6c8ebf;" parent="1" vertex="1">
          <mxGeometry x="480" y="160" width="90" height="90" as="geometry" />
        </mxCell>
        <mxCell id="t49IodBB0YmtrTX4iaS2-2" value="2. Validation" style="whiteSpace=wrap;html=1;aspect=fixed;fillColor=#dae8fc;strokeColor=#6c8ebf;" parent="1" vertex="1">
          <mxGeometry x="330" y="300" width="80" height="80" as="geometry" />
        </mxCell>
        <mxCell id="t49IodBB0YmtrTX4iaS2-3" value="db" style="shape=cylinder3;whiteSpace=wrap;html=1;boundedLbl=1;backgroundOutline=1;size=15;fillColor=light-dark(#6eb2f2, #1d293b);strokeColor=#6c8ebf;" parent="1" vertex="1">
          <mxGeometry x="580" y="430" width="60" height="80" as="geometry" />
        </mxCell>
        <mxCell id="t49IodBB0YmtrTX4iaS2-4" value="user&amp;nbsp;" style="ellipse;whiteSpace=wrap;html=1;fillColor=light-dark(#739dd9, #1d293b);strokeColor=#6c8ebf;" parent="1" vertex="1">
          <mxGeometry x="150" y="150" width="120" height="80" as="geometry" />
        </mxCell>
        <mxCell id="t49IodBB0YmtrTX4iaS2-5" value="" style="curved=1;endArrow=classic;html=1;rounded=0;exitX=0.933;exitY=0.238;exitDx=0;exitDy=0;exitPerimeter=0;edgeStyle=orthogonalEdgeStyle;entryX=0;entryY=0.75;entryDx=0;entryDy=0;" parent="1" source="t49IodBB0YmtrTX4iaS2-4" target="t49IodBB0YmtrTX4iaS2-1" edge="1">
          <mxGeometry width="50" height="50" relative="1" as="geometry">
            <mxPoint x="300" y="160" as="sourcePoint" />
            <mxPoint x="480" y="222" as="targetPoint" />
          </mxGeometry>
        </mxCell>
        <mxCell id="t49IodBB0YmtrTX4iaS2-6" value="" style="curved=1;endArrow=classic;html=1;rounded=0;exitX=0.75;exitY=1;exitDx=0;exitDy=0;entryX=1.025;entryY=0.375;entryDx=0;entryDy=0;entryPerimeter=0;edgeStyle=orthogonalEdgeStyle;" parent="1" source="t49IodBB0YmtrTX4iaS2-1" target="t49IodBB0YmtrTX4iaS2-2" edge="1">
          <mxGeometry width="50" height="50" relative="1" as="geometry">
            <mxPoint x="480" y="320" as="sourcePoint" />
            <mxPoint x="530" y="270" as="targetPoint" />
          </mxGeometry>
        </mxCell>
        <mxCell id="t49IodBB0YmtrTX4iaS2-9" value="" style="endArrow=classic;html=1;rounded=0;entryX=0;entryY=0;entryDx=0;entryDy=52.5;entryPerimeter=0;exitX=0.975;exitY=0.9;exitDx=0;exitDy=0;exitPerimeter=0;edgeStyle=orthogonalEdgeStyle;elbow=vertical;curved=1;" parent="1" source="t49IodBB0YmtrTX4iaS2-2" target="t49IodBB0YmtrTX4iaS2-3" edge="1">
          <mxGeometry width="50" height="50" relative="1" as="geometry">
            <mxPoint x="440" y="390" as="sourcePoint" />
            <mxPoint x="490" y="340" as="targetPoint" />
          </mxGeometry>
        </mxCell>
        <mxCell id="t49IodBB0YmtrTX4iaS2-10" value="" style="curved=1;endArrow=classic;html=1;rounded=0;exitX=0.667;exitY=0;exitDx=0;exitDy=0;exitPerimeter=0;entryX=0.633;entryY=-0.025;entryDx=0;entryDy=0;entryPerimeter=0;edgeStyle=orthogonalEdgeStyle;" parent="1" source="t49IodBB0YmtrTX4iaS2-1" target="t49IodBB0YmtrTX4iaS2-4" edge="1">
          <mxGeometry width="50" height="50" relative="1" as="geometry">
            <mxPoint x="580" y="110" as="sourcePoint" />
            <mxPoint x="630" y="60" as="targetPoint" />
          </mxGeometry>
        </mxCell>
        <mxCell id="t49IodBB0YmtrTX4iaS2-11" value="Confirmation message on screen&amp;nbsp;" style="rounded=1;whiteSpace=wrap;html=1;fillColor=#FFFFFF;strokeColor=light-dark(#dee0e3, #5c79a3);" parent="1" vertex="1">
          <mxGeometry x="130" y="440" width="120" height="60" as="geometry" />
        </mxCell>
        <mxCell id="t49IodBB0YmtrTX4iaS2-12" value="" style="curved=1;endArrow=classic;html=1;rounded=0;entryX=1;entryY=0.25;entryDx=0;entryDy=0;exitX=0.425;exitY=0.963;exitDx=0;exitDy=0;exitPerimeter=0;edgeStyle=orthogonalEdgeStyle;" parent="1" source="t49IodBB0YmtrTX4iaS2-2" target="t49IodBB0YmtrTX4iaS2-11" edge="1">
          <mxGeometry width="50" height="50" relative="1" as="geometry">
            <mxPoint x="340" y="470" as="sourcePoint" />
            <mxPoint x="380" y="420" as="targetPoint" />
          </mxGeometry>
        </mxCell>
        <mxCell id="t49IodBB0YmtrTX4iaS2-13" value="Client details and appointment details" style="text;html=1;align=center;verticalAlign=middle;whiteSpace=wrap;rounded=0;" parent="1" vertex="1">
          <mxGeometry x="250" y="210" width="210" height="40" as="geometry" />
        </mxCell>
        <mxCell id="t49IodBB0YmtrTX4iaS2-14" value="Confirmation&amp;nbsp;" style="text;html=1;align=center;verticalAlign=middle;whiteSpace=wrap;rounded=0;" parent="1" vertex="1">
          <mxGeometry x="350" y="120" width="60" height="30" as="geometry" />
        </mxCell>
        <mxCell id="t49IodBB0YmtrTX4iaS2-15" value="" style="curved=1;endArrow=classic;html=1;rounded=0;exitX=0;exitY=0.5;exitDx=0;exitDy=0;edgeStyle=orthogonalEdgeStyle;" parent="1" source="t49IodBB0YmtrTX4iaS2-2" target="t49IodBB0YmtrTX4iaS2-4" edge="1">
          <mxGeometry width="50" height="50" relative="1" as="geometry">
            <mxPoint x="390" y="430" as="sourcePoint" />
            <mxPoint x="440" y="380" as="targetPoint" />
          </mxGeometry>
        </mxCell>
        <mxCell id="t49IodBB0YmtrTX4iaS2-16" value="Error message" style="text;html=1;align=center;verticalAlign=middle;whiteSpace=wrap;rounded=0;" parent="1" vertex="1">
          <mxGeometry x="220" y="270" width="90" height="40" as="geometry" />
        </mxCell>
        <mxCell id="t49IodBB0YmtrTX4iaS2-17" value="Store in db if correct" style="text;html=1;align=center;verticalAlign=middle;whiteSpace=wrap;rounded=0;" parent="1" vertex="1">
          <mxGeometry x="495" y="430" width="60" height="30" as="geometry" />
        </mxCell>
      </root>
    </mxGraphModel>
  </diagram>
</mxfile>
